<svg xmlns="http://www.w3.org/2000/svg" width="32" height="32" viewBox="0 0 32 32" fill="none">
  <!-- Dark background -->
  <rect width="32" height="32" rx="4" fill="#0A0B0E" />
  
  <!-- Grid pattern -->
  <g opacity="0.3">
    <line x1="0" y1="8" x2="32" y2="8" stroke="#00FFFF" stroke-width="0.5" />
    <line x1="0" y1="16" x2="32" y2="16" stroke="#00FFFF" stroke-width="0.5" />
    <line x1="0" y1="24" x2="32" y2="24" stroke="#00FFFF" stroke-width="0.5" />
    <line x1="8" y1="0" x2="8" y2="32" stroke="#00FFFF" stroke-width="0.5" />
    <line x1="16" y1="0" x2="16" y2="32" stroke="#00FFFF" stroke-width="0.5" />
    <line x1="24" y1="0" x2="24" y2="32" stroke="#00FFFF" stroke-width="0.5" />
  </g>
  
  <!-- Stylized "B" letter with cyberpunk glitch effect -->
  <path d="M12 6H20C22.2091 6 24 7.79086 24 10C24 12.2091 22.2091 14 20 14H12V6Z" fill="#FB2576" />
  <path d="M12 14H20C22.2091 14 24 15.7909 24 18C24 20.2091 22.2091 22 20 22H12V14Z" fill="#0AFFED" />
  <path d="M10 4H20C23.3137 4 26 6.68629 26 10C26 12.12 24.9574 14.0172 23.3633 15.1494C24.3957 16.2905 25 17.7781 25 19.4C25 22.9348 22.1567 25.7782 18.6219 25.9782L18.3904 25.9937L18.1576 26H8V4H10ZM20 13C21.1046 13 22 12.1046 22 11C22 9.89543 21.1046 9 20 9H12V13H20ZM18 22C19.1046 22 20 21.1046 20 20C20 18.8954 19.1046 18 18 18H12V22H18Z" fill="url(#paint0_linear)" />
  
  <!-- Glitch effect -->
  <path d="M10 7H24" stroke="#FB2576" stroke-width="0.5" opacity="0.8" />
  <path d="M10 10H24" stroke="#0AFFED" stroke-width="0.5" opacity="0.8" />
  <path d="M10 17H24" stroke="#FB2576" stroke-width="0.5" opacity="0.8" />
  <path d="M10 20H24" stroke="#0AFFED" stroke-width="0.5" opacity="0.8" />
  
  <!-- Scan line animation -->
  <rect x="0" y="12" width="32" height="1" fill="#00FFFF" opacity="0.3" />
  
  <!-- Outer border glow -->
  <rect x="1" y="1" width="30" height="30" rx="3" stroke="url(#paint1_linear)" stroke-width="1" />
  
  <!-- Gradient definitions -->
  <defs>
    <linearGradient id="paint0_linear" x1="8" y1="4" x2="26" y2="26" gradientUnits="userSpaceOnUse">
      <stop offset="0" stop-color="#0AFFED" />
      <stop offset="1" stop-color="#FB2576" />
    </linearGradient>
    <linearGradient id="paint1_linear" x1="0" y1="0" x2="32" y2="32" gradientUnits="userSpaceOnUse">
      <stop offset="0" stop-color="#0AFFED" />
      <stop offset="0.5" stop-color="#9400D3" />
      <stop offset="1" stop-color="#FB2576" />
    </linearGradient>
  </defs>
</svg> 